<svg width="88" height="88" viewBox="0 0 88 88" fill="none" xmlns="http://www.w3.org/2000/svg">
<circle cx="44" cy="44" r="44" fill="#246BFD"/>
<g filter="url(#filter0_d_448_7307)">
<path d="M45.707 43.2246L47.7047 43.3209L47.7048 43.3197L45.707 43.2246ZM45.2188 51.3301L43.2239 51.1859L43.2232 51.197L45.2188 51.3301ZM45.1211 53.332L47.1195 53.412L47.1196 53.4089L45.1211 53.332ZM44.9258 56.0176L46.9152 56.2234L46.9159 56.2166L44.9258 56.0176ZM43.7539 61.584L41.9233 60.7785L41.9153 60.7966L41.9078 60.8148L43.7539 61.584ZM42.4355 63.4883L41.1123 61.9886L41.0655 62.0299L41.0213 62.0741L42.4355 63.4883ZM38.627 63.8301L37.6464 65.5732L37.6686 65.5857L37.6912 65.5977L38.627 63.8301ZM37.3086 62.707L35.6958 63.8898L35.7154 63.9165L35.736 63.9427L37.3086 62.707ZM36.4785 61.0957L34.5714 61.698L34.5761 61.7131L34.5811 61.7282L36.4785 61.0957ZM36.2832 55.9688L38.2795 56.0897L38.2798 56.0862L36.2832 55.9688ZM36.5762 52.6973L38.5616 52.9379L38.8625 50.4562L36.3752 50.7074L36.5762 52.6973ZM31.7422 53.1855L31.5412 51.1957L29.9399 51.3574L29.7554 52.9563L31.7422 53.1855ZM31.4004 56.2617L29.412 56.0468L29.4093 56.0712L29.4073 56.0956L31.4004 56.2617ZM30.7168 59.6797L28.8139 59.064L28.8082 59.0818L28.8027 59.0997L30.7168 59.6797ZM24.5156 63.0977L25.6984 61.4848L25.6623 61.4584L25.625 61.4336L24.5156 63.0977ZM23.3438 61.8281L21.5762 62.7639L21.5881 62.7864L21.6006 62.8086L23.3438 61.8281ZM22.7578 52.3555L24.7507 52.5244L24.7509 52.5216L22.7578 52.3555ZM23.0996 46.4961L25.0985 46.5627L25.0986 46.5596L23.0996 46.4961ZM23.1484 40.3438H21.1484V40.3596L21.1487 40.3755L23.1484 40.3438ZM23.2461 34.0938L21.2484 33.9986L21.2476 34.0149L21.2471 34.0313L23.2461 34.0938ZM23.2949 31.7012L21.2962 31.6298L21.2949 31.6655V31.7012H23.2949ZM23.6367 29.1621L21.7108 28.6228L21.7032 28.6498L21.6964 28.677L23.6367 29.1621ZM24.7109 27.1113L23.2545 25.7406L23.2325 25.764L23.2113 25.7881L24.7109 27.1113ZM30.1797 27.4043L28.7344 28.7867L28.7498 28.8028L28.7655 28.8185L30.1797 27.4043ZM31.6934 30.1387L29.7599 30.6505L29.7619 30.6577L29.7638 30.6649L31.6934 30.1387ZM32.0352 40.7344L34.0324 40.8395L34.0325 40.8368L32.0352 40.7344ZM31.8398 44.4941L29.8425 44.3917L29.7172 46.8338L32.1356 46.4721L31.8398 44.4941ZM37.0645 43.7129L37.3602 45.6909L39.0296 45.4413L39.064 43.7537L37.0645 43.7129ZM37.3574 34.2891L39.3535 34.4138L39.3547 34.3949L39.3555 34.3759L37.3574 34.2891ZM38.9688 27.7949L40.2858 29.3001L40.292 29.2946L38.9688 27.7949ZM43.6074 27.8438L42.2367 29.3001L42.2574 29.3197L42.2787 29.3386L43.6074 27.8438ZM44.9746 29.748L43.1405 30.5455L43.1548 30.5785L43.1703 30.611L44.9746 29.748ZM43.9023 35.0703C43.9023 37.74 43.838 40.4264 43.7093 43.1295L47.7048 43.3197C47.8365 40.5541 47.9023 37.8043 47.9023 35.0703H43.9023ZM43.7094 43.1283C43.5799 45.8141 43.4181 48.5 43.224 51.1859L47.2135 51.4743C47.41 48.7565 47.5737 46.0387 47.7047 43.3209L43.7094 43.1283ZM43.2232 51.197C43.1888 51.7127 43.1554 52.4014 43.1226 53.2552L47.1196 53.4089C47.1519 52.5699 47.1836 51.924 47.2143 51.4631L43.2232 51.197ZM43.1227 53.2521C43.092 54.0191 43.0302 54.8739 42.9357 55.8186L46.9159 56.2166C47.0167 55.2081 47.0851 54.2726 47.1195 53.412L43.1227 53.2521ZM42.9364 55.8118C42.8432 56.7129 42.7186 57.6321 42.5624 58.5696L46.5079 59.2272C46.6772 58.2116 46.8131 57.2103 46.9152 56.2234L42.9364 55.8118ZM42.5624 58.5696C42.4239 59.4003 42.2072 60.1332 41.9233 60.7785L45.5845 62.3895C46.0167 61.4072 46.3209 60.3497 46.5079 59.2272L42.5624 58.5696ZM41.9078 60.8148C41.6817 61.3572 41.407 61.7286 41.1123 61.9886L43.7588 64.988C44.5708 64.2714 45.175 63.3733 45.6001 62.3532L41.9078 60.8148ZM41.0213 62.0741C40.9001 62.1953 40.7689 62.2695 40.4824 62.2695V66.2695C41.7584 66.2695 42.9293 65.8229 43.8498 64.9025L41.0213 62.0741ZM40.4824 62.2695C40.0945 62.2695 39.8019 62.1891 39.5627 62.0625L37.6912 65.5977C38.5587 66.0569 39.5032 66.2695 40.4824 66.2695V62.2695ZM39.6075 62.0869C39.3081 61.9186 39.0721 61.7143 38.8812 61.4714L35.736 63.9427C36.2613 64.6112 36.9041 65.1557 37.6464 65.5732L39.6075 62.0869ZM38.9214 61.5243C38.6887 61.2069 38.5068 60.8561 38.3759 60.4632L34.5811 61.7282C34.8408 62.5072 35.2124 63.2306 35.6958 63.8898L38.9214 61.5243ZM38.3857 60.4934C38.2521 60.0705 38.1855 59.6389 38.1855 59.1914H34.1855C34.1855 60.046 34.3143 60.8839 34.5714 61.698L38.3857 60.4934ZM38.1855 59.1914C38.1855 58.1576 38.2169 57.1237 38.2795 56.0897L34.2869 55.8478C34.2193 56.9622 34.1855 58.0768 34.1855 59.1914H38.1855ZM38.2798 56.0862C38.3425 55.0196 38.4365 53.9702 38.5616 52.9379L34.5907 52.4566C34.4554 53.5728 34.3541 54.7044 34.2867 55.8513L38.2798 56.0862ZM36.3752 50.7074L31.5412 51.1957L31.9432 55.1754L36.7772 54.6871L36.3752 50.7074ZM29.7554 52.9563C29.657 53.8089 29.5425 54.8394 29.412 56.0468L33.3888 56.4767C33.5187 55.2752 33.6321 54.2549 33.729 53.4148L29.7554 52.9563ZM29.4073 56.0956C29.3222 57.1164 29.1243 58.1048 28.8139 59.064L32.6197 60.2953C33.0255 59.0411 33.2832 57.7508 33.3935 56.4278L29.4073 56.0956ZM28.8027 59.0997C28.5528 59.9244 28.1796 60.5954 27.698 61.1459L30.7083 63.7799C31.5938 62.7679 32.2297 61.5834 32.6308 60.2597L28.8027 59.0997ZM27.698 61.1459C27.4566 61.4217 27.1009 61.6348 26.3711 61.6348V65.6348C28.0501 65.6348 29.5824 65.0666 30.7083 63.7799L27.698 61.1459ZM26.3711 61.6348C25.9456 61.6348 25.7695 61.537 25.6984 61.4848L23.3329 64.7105C24.2384 65.3745 25.2992 65.6348 26.3711 65.6348V61.6348ZM25.625 61.4336C25.4038 61.2861 25.2283 61.0991 25.0869 60.8476L21.6006 62.8086C22.0451 63.5989 22.6509 64.2582 23.4062 64.7618L25.625 61.4336ZM25.1113 60.8923C24.9141 60.5199 24.7647 60.1022 24.6701 59.6293L20.7478 60.4137C20.9137 61.2429 21.1874 62.0296 21.5762 62.7639L25.1113 60.8923ZM24.6701 59.6293C24.5624 59.0906 24.5137 58.6042 24.5137 58.166H20.5137C20.5137 58.8997 20.5951 59.6503 20.7478 60.4137L24.6701 59.6293ZM24.5137 58.166C24.5137 56.2685 24.5927 54.388 24.7507 52.5244L20.765 52.1866C20.5974 54.1641 20.5137 56.1573 20.5137 58.166H24.5137ZM24.7509 52.5216C24.9164 50.5354 25.0323 48.5491 25.0985 46.5627L21.1007 46.4295C21.0367 48.3493 20.9247 50.2693 20.7647 52.1894L24.7509 52.5216ZM25.0986 46.5596C25.1647 44.4771 25.1812 42.3945 25.1482 40.312L21.1487 40.3755C21.1807 42.3945 21.1647 44.4136 21.1006 46.4326L25.0986 46.5596ZM25.1484 40.3438C25.1484 38.2813 25.1807 36.2187 25.2451 34.1562L21.2471 34.0313C21.1813 36.1354 21.1484 38.2396 21.1484 40.3438H25.1484ZM25.2438 34.1889C25.2783 33.4652 25.2949 32.6347 25.2949 31.7012H21.2949C21.2949 32.5906 21.279 33.3551 21.2484 33.9986L25.2438 34.1889ZM25.2936 31.7726C25.3219 30.9826 25.4197 30.2765 25.577 29.6472L21.6964 28.677C21.4631 29.6102 21.3331 30.5968 21.2962 31.6298L25.2936 31.7726ZM25.5626 29.7014C25.7211 29.1355 25.9487 28.7314 26.2106 28.4346L23.2113 25.7881C22.4966 26.598 22.0081 27.5611 21.7108 28.6228L25.5626 29.7014ZM26.1673 28.4821C26.1978 28.4497 26.3593 28.2812 27.0059 28.2812V24.2812C25.6342 24.2812 24.2658 24.6662 23.2545 25.7406L26.1673 28.4821ZM27.0059 28.2812C28.0582 28.2812 28.5137 28.556 28.7344 28.7867L31.625 26.0219C30.4134 24.7552 28.753 24.2812 27.0059 24.2812V28.2812ZM28.7655 28.8185C29.2007 29.2537 29.5453 29.8396 29.7599 30.6505L33.6268 29.6269C33.2555 28.2242 32.591 26.9872 31.5939 25.9901L28.7655 28.8185ZM29.7638 30.6649C30.0052 31.5498 30.1328 32.5268 30.1328 33.6055H34.1328C34.1328 32.2102 33.9675 30.8759 33.6229 29.6124L29.7638 30.6649ZM30.1328 33.6055C30.1328 33.6078 30.1328 33.6102 30.1328 33.6125C30.1328 33.6149 30.1328 33.6172 30.1328 33.6196C30.1328 33.6219 30.1328 33.6243 30.1328 33.6266C30.1328 33.629 30.1328 33.6313 30.1328 33.6337C30.1328 33.636 30.1328 33.6384 30.1328 33.6407C30.1328 33.6431 30.1328 33.6454 30.1328 33.6478C30.1328 33.6501 30.1328 33.6525 30.1328 33.6548C30.1328 33.6572 30.1328 33.6595 30.1328 33.6618C30.1328 33.6642 30.1328 33.6665 30.1328 33.6689C30.1328 33.6712 30.1328 33.6736 30.1328 33.6759C30.1328 33.6783 30.1328 33.6806 30.1328 33.6829C30.1328 33.6853 30.1328 33.6876 30.1328 33.69C30.1328 33.6923 30.1328 33.6947 30.1328 33.697C30.1328 33.6993 30.1328 33.7017 30.1328 33.704C30.1328 33.7064 30.1328 33.7087 30.1328 33.711C30.1328 33.7134 30.1328 33.7157 30.1328 33.7181C30.1328 33.7204 30.1328 33.7227 30.1328 33.7251C30.1328 33.7274 30.1328 33.7297 30.1328 33.7321C30.1328 33.7344 30.1328 33.7367 30.1328 33.7391C30.1328 33.7414 30.1328 33.7438 30.1328 33.7461C30.1328 33.7484 30.1328 33.7508 30.1328 33.7531C30.1328 33.7554 30.1328 33.7578 30.1328 33.7601C30.1328 33.7624 30.1328 33.7648 30.1328 33.7671C30.1328 33.7694 30.1328 33.7718 30.1328 33.7741C30.1328 33.7764 30.1328 33.7788 30.1328 33.7811C30.1328 33.7834 30.1328 33.7857 30.1328 33.7881C30.1328 33.7904 30.1328 33.7927 30.1328 33.7951C30.1328 33.7974 30.1328 33.7997 30.1328 33.802C30.1328 33.8044 30.1328 33.8067 30.1328 33.809C30.1328 33.8114 30.1328 33.8137 30.1328 33.816C30.1328 33.8183 30.1328 33.8207 30.1328 33.823C30.1328 33.8253 30.1328 33.8276 30.1328 33.83C30.1328 33.8323 30.1328 33.8346 30.1328 33.8369C30.1328 33.8393 30.1328 33.8416 30.1328 33.8439C30.1328 33.8462 30.1328 33.8486 30.1328 33.8509C30.1328 33.8532 30.1328 33.8555 30.1328 33.8578C30.1328 33.8602 30.1328 33.8625 30.1328 33.8648C30.1328 33.8671 30.1328 33.8694 30.1328 33.8718C30.1328 33.8741 30.1328 33.8764 30.1328 33.8787C30.1328 33.881 30.1328 33.8834 30.1328 33.8857C30.1328 33.888 30.1328 33.8903 30.1328 33.8926C30.1328 33.8949 30.1328 33.8973 30.1328 33.8996C30.1328 33.9019 30.1328 33.9042 30.1328 33.9065C30.1328 33.9088 30.1328 33.9111 30.1328 33.9135C30.1328 33.9158 30.1328 33.9181 30.1328 33.9204C30.1328 33.9227 30.1328 33.925 30.1328 33.9273C30.1328 33.9297 30.1328 33.932 30.1328 33.9343C30.1328 33.9366 30.1328 33.9389 30.1328 33.9412C30.1328 33.9435 30.1328 33.9458 30.1328 33.9481C30.1328 33.9505 30.1328 33.9528 30.1328 33.9551C30.1328 33.9574 30.1328 33.9597 30.1328 33.962C30.1328 33.9643 30.1328 33.9666 30.1328 33.9689C30.1328 33.9712 30.1328 33.9735 30.1328 33.9758C30.1328 33.9781 30.1328 33.9804 30.1328 33.9828C30.1328 33.9851 30.1328 33.9874 30.1328 33.9897C30.1328 33.992 30.1328 33.9943 30.1328 33.9966C30.1328 33.9989 30.1328 34.0012 30.1328 34.0035C30.1328 34.0058 30.1328 34.0081 30.1328 34.0104C30.1328 34.0127 30.1328 34.015 30.1328 34.0173C30.1328 34.0196 30.1328 34.0219 30.1328 34.0242C30.1328 34.0265 30.1328 34.0288 30.1328 34.0311C30.1328 34.0334 30.1328 34.0357 30.1328 34.038C30.1328 34.0403 30.1328 34.0426 30.1328 34.0449C30.1328 34.0472 30.1328 34.0495 30.1328 34.0518C30.1328 34.0541 30.1328 34.0564 30.1328 34.0587C30.1328 34.061 30.1328 34.0633 30.1328 34.0656C30.1328 34.0679 30.1328 34.0702 30.1328 34.0724C30.1328 34.0747 30.1328 34.077 30.1328 34.0793C30.1328 34.0816 30.1328 34.0839 30.1328 34.0862C30.1328 34.0885 30.1328 34.0908 30.1328 34.0931C30.1328 34.0954 30.1328 34.0977 30.1328 34.1C30.1328 34.1022 30.1328 34.1045 30.1328 34.1068C30.1328 34.1091 30.1328 34.1114 30.1328 34.1137C30.1328 34.116 30.1328 34.1183 30.1328 34.1206C30.1328 34.1228 30.1328 34.1251 30.1328 34.1274C30.1328 34.1297 30.1328 34.132 30.1328 34.1343C30.1328 34.1366 30.1328 34.1389 30.1328 34.1411C30.1328 34.1434 30.1328 34.1457 30.1328 34.148C30.1328 34.1503 30.1328 34.1526 30.1328 34.1549C30.1328 34.1571 30.1328 34.1594 30.1328 34.1617C30.1328 34.164 30.1328 34.1663 30.1328 34.1685C30.1328 34.1708 30.1328 34.1731 30.1328 34.1754C30.1328 34.1777 30.1328 34.18 30.1328 34.1822C30.1328 34.1845 30.1328 34.1868 30.1328 34.1891C30.1328 34.1914 30.1328 34.1936 30.1328 34.1959C30.1328 34.1982 30.1328 34.2005 30.1328 34.2027C30.1328 34.205 30.1328 34.2073 30.1328 34.2096C30.1328 34.2119 30.1328 34.2141 30.1328 34.2164C30.1328 34.2187 30.1328 34.221 30.1328 34.2232C30.1328 34.2255 30.1328 34.2278 30.1328 34.2301C30.1328 34.2323 30.1328 34.2346 30.1328 34.2369C30.1328 34.2391 30.1328 34.2414 30.1328 34.2437C30.1328 34.246 30.1328 34.2482 30.1328 34.2505C30.1328 34.2528 30.1328 34.2551 30.1328 34.2573C30.1328 34.2596 30.1328 34.2619 30.1328 34.2641C30.1328 34.2664 30.1328 34.2687 30.1328 34.2709C30.1328 34.2732 30.1328 34.2755 30.1328 34.2777C30.1328 34.28 30.1328 34.2823 30.1328 34.2846C30.1328 34.2868 30.1328 34.2891 30.1328 34.2914C30.1328 34.2936 30.1328 34.2959 30.1328 34.2981C30.1328 34.3004 30.1328 34.3027 30.1328 34.3049C30.1328 34.3072 30.1328 34.3095 30.1328 34.3117C30.1328 34.314 30.1328 34.3163 30.1328 34.3185C30.1328 34.3208 30.1328 34.3231 30.1328 34.3253C30.1328 34.3276 30.1328 34.3298 30.1328 34.3321C30.1328 34.3344 30.1328 34.3366 30.1328 34.3389C30.1328 34.3411 30.1328 34.3434 30.1328 34.3457C30.1328 34.3479 30.1328 34.3502 30.1328 34.3524C30.1328 34.3547 30.1328 34.357 30.1328 34.3592C30.1328 34.3615 30.1328 34.3637 30.1328 34.366C30.1328 34.3682 30.1328 34.3705 30.1328 34.3728C30.1328 34.375 30.1328 34.3773 30.1328 34.3795C30.1328 34.3818 30.1328 34.384 30.1328 34.3863C30.1328 34.3885 30.1328 34.3908 30.1328 34.393C30.1328 34.3953 30.1328 34.3976 30.1328 34.3998C30.1328 34.4021 30.1328 34.4043 30.1328 34.4066C30.1328 34.4088 30.1328 34.4111 30.1328 34.4133C30.1328 34.4156 30.1328 34.4178 30.1328 34.4201C30.1328 34.4223 30.1328 34.4246 30.1328 34.4268C30.1328 34.4291 30.1328 34.4313 30.1328 34.4336C30.1328 34.4358 30.1328 34.4381 30.1328 34.4403C30.1328 34.4425 30.1328 34.4448 30.1328 34.447C30.1328 34.4493 30.1328 34.4515 30.1328 34.4538C30.1328 34.456 30.1328 34.4583 30.1328 34.4605C30.1328 34.4628 30.1328 34.465 30.1328 34.4672C30.1328 34.4695 30.1328 34.4717 30.1328 34.474C30.1328 34.4762 30.1328 34.4785 30.1328 34.4807C30.1328 34.4829 30.1328 34.4852 30.1328 34.4874C30.1328 34.4897 30.1328 34.4919 30.1328 34.4941C30.1328 34.4964 30.1328 34.4986 30.1328 34.5009C30.1328 34.5031 30.1328 34.5053 30.1328 34.5076C30.1328 34.5098 30.1328 34.5121 30.1328 34.5143C30.1328 34.5165 30.1328 34.5188 30.1328 34.521C30.1328 34.5232 30.1328 34.5255 30.1328 34.5277C30.1328 34.53 30.1328 34.5322 30.1328 34.5344C30.1328 34.5367 30.1328 34.5389 30.1328 34.5411C30.1328 34.5434 30.1328 34.5456 30.1328 34.5478C30.1328 34.5501 30.1328 34.5523 30.1328 34.5545C30.1328 34.5568 30.1328 34.559 30.1328 34.5612C30.1328 34.5635 30.1328 34.5657 30.1328 34.5679C30.1328 34.5702 30.1328 34.5724 30.1328 34.5746C30.1328 34.5768 30.1328 34.5791 30.1328 34.5813C30.1328 34.5835 30.1328 34.5858 30.1328 34.588C30.1328 34.5902 30.1328 34.5924 30.1328 34.5947C30.1328 34.5969 30.1328 34.5991 30.1328 34.6013C30.1328 34.6036 30.1328 34.6058 30.1328 34.608C30.1328 34.6103 30.1328 34.6125 30.1328 34.6147C30.1328 34.6169 30.1328 34.6192 30.1328 34.6214C30.1328 34.6236 30.1328 34.6258 30.1328 34.628C30.1328 34.6303 30.1328 34.6325 30.1328 34.6347C30.1328 34.6369 30.1328 34.6392 30.1328 34.6414C30.1328 34.6436 30.1328 34.6458 30.1328 34.648C30.1328 34.6503 30.1328 34.6525 30.1328 34.6547C30.1328 34.6569 30.1328 34.6591 30.1328 34.6614C30.1328 34.6636 30.1328 34.6658 30.1328 34.668C30.1328 34.6702 30.1328 34.6724 30.1328 34.6747C30.1328 34.6769 30.1328 34.6791 30.1328 34.6813C30.1328 34.6835 30.1328 34.6857 30.1328 34.688C30.1328 34.6902 30.1328 34.6924 30.1328 34.6946C30.1328 34.6968 30.1328 34.699 30.1328 34.7012C30.1328 34.7035 30.1328 34.7057 30.1328 34.7079C30.1328 34.7101 30.1328 34.7123 30.1328 34.7145C30.1328 34.7167 30.1328 34.7189 30.1328 34.7211C30.1328 34.7234 30.1328 34.7256 30.1328 34.7278C30.1328 34.73 30.1328 34.7322 30.1328 34.7344C30.1328 34.7366 30.1328 34.7388 30.1328 34.741C30.1328 34.7432 30.1328 34.7454 30.1328 34.7477C30.1328 34.7499 30.1328 34.7521 30.1328 34.7543C30.1328 34.7565 30.1328 34.7587 30.1328 34.7609C30.1328 34.7631 30.1328 34.7653 30.1328 34.7675C30.1328 34.7697 30.1328 34.7719 30.1328 34.7741C30.1328 34.7763 30.1328 34.7785 30.1328 34.7807C30.1328 34.7829 30.1328 34.7851 30.1328 34.7873C30.1328 34.7895 30.1328 34.7917 30.1328 34.7939C30.1328 34.7961 30.1328 34.7983 30.1328 34.8005C30.1328 34.8027 30.1328 34.8049 30.1328 34.8071C30.1328 34.8093 30.1328 34.8115 30.1328 34.8137C30.1328 34.8159 30.1328 34.8181 30.1328 34.8203C30.1328 34.8225 30.1328 34.8247 30.1328 34.8269C30.1328 34.8291 30.1328 34.8313 30.1328 34.8335C30.1328 34.8357 30.1328 34.8379 30.1328 34.8401C30.1328 34.8423 30.1328 34.8445 30.1328 34.8467C30.1328 34.8489 30.1328 34.8511 30.1328 34.8533C30.1328 34.8555 30.1328 34.8577 30.1328 34.8598C30.1328 34.862 30.1328 34.8642 30.1328 34.8664C30.1328 34.8686 30.1328 34.8708 30.1328 34.873C30.1328 34.8752 30.1328 34.8774 30.1328 34.8796C30.1328 34.8818 30.1328 34.8839 30.1328 34.8861C30.1328 34.8883 30.1328 34.8905 30.1328 34.8927C30.1328 34.8949 30.1328 34.8971 30.1328 34.8993C30.1328 34.9015 30.1328 34.9036 30.1328 34.9058C30.1328 34.908 30.1328 34.9102 30.1328 34.9124C30.1328 34.9146 30.1328 34.9168 30.1328 34.9189C30.1328 34.9211 30.1328 34.9233 30.1328 34.9255C30.1328 34.9277 30.1328 34.9299 30.1328 34.932C30.1328 34.9342 30.1328 34.9364 30.1328 34.9386C30.1328 34.9408 30.1328 34.943 30.1328 34.9451C30.1328 34.9473 30.1328 34.9495 30.1328 34.9517C30.1328 34.9539 30.1328 34.956 30.1328 34.9582C30.1328 34.9604 30.1328 34.9626 30.1328 34.9648C30.1328 34.9669 30.1328 34.9691 30.1328 34.9713C30.1328 34.9735 30.1328 34.9756 30.1328 34.9778C30.1328 34.98 30.1328 34.9822 30.1328 34.9843C30.1328 34.9865 30.1328 34.9887 30.1328 34.9909C30.1328 34.993 30.1328 34.9952 30.1328 34.9974C30.1328 34.9996 30.1328 35.0017 30.1328 35.0039C30.1328 35.0061 30.1328 35.0083 30.1328 35.0104C30.1328 35.0126 30.1328 35.0148 30.1328 35.017C30.1328 35.0191 30.1328 35.0213 30.1328 35.0235C30.1328 35.0256 30.1328 35.0278 30.1328 35.03C30.1328 35.0321 30.1328 35.0343 30.1328 35.0365C30.1328 35.0387 30.1328 35.0408 30.1328 35.043C30.1328 35.0452 30.1328 35.0473 30.1328 35.0495C30.1328 35.0517 30.1328 35.0538 30.1328 35.056C30.1328 35.0582 30.1328 35.0603 30.1328 35.0625C30.1328 35.0647 30.1328 35.0668 30.1328 35.069C30.1328 35.0712 30.1328 35.0733 30.1328 35.0755C30.1328 35.0776 30.1328 35.0798 30.1328 35.082C30.1328 35.0841 30.1328 35.0863 30.1328 35.0885C30.1328 35.0906 30.1328 35.0928 30.1328 35.0949C30.1328 35.0971 30.1328 35.0993 30.1328 35.1014C30.1328 35.1036 30.1328 35.1057 30.1328 35.1079C30.1328 35.1101 30.1328 35.1122 30.1328 35.1144C30.1328 35.1165 30.1328 35.1187 30.1328 35.1209C30.1328 35.123 30.1328 35.1252 30.1328 35.1273C30.1328 35.1295 30.1328 35.1316 30.1328 35.1338C30.1328 35.136 30.1328 35.1381 30.1328 35.1403C30.1328 35.1424 30.1328 35.1446 30.1328 35.1467C30.1328 35.1489 30.1328 35.151 30.1328 35.1532C30.1328 35.1553 30.1328 35.1575 30.1328 35.1596C30.1328 35.1618 30.1328 35.164 30.1328 35.1661C30.1328 35.1683 30.1328 35.1704 30.1328 35.1726C30.1328 35.1747 30.1328 35.1769 30.1328 35.179C30.1328 35.1812 30.1328 35.1833 30.1328 35.1855C30.1328 35.1876 30.1328 35.1898 30.1328 35.1919C30.1328 35.1941 30.1328 35.1962 30.1328 35.1983C30.1328 35.2005 30.1328 35.2026 30.1328 35.2048C30.1328 35.2069 30.1328 35.2091 30.1328 35.2112C30.1328 35.2134 30.1328 35.2155 30.1328 35.2177C30.1328 35.2198 30.1328 35.2219 30.1328 35.2241C30.1328 35.2262 30.1328 35.2284 30.1328 35.2305C30.1328 35.2327 30.1328 35.2348 30.1328 35.2369C30.1328 35.2391 30.1328 35.2412 30.1328 35.2434C30.1328 35.2455 30.1328 35.2477 30.1328 35.2498C30.1328 35.2519 30.1328 35.2541 30.1328 35.2562C30.1328 35.2584 30.1328 35.2605 30.1328 35.2626C30.1328 35.2648 30.1328 35.2669 30.1328 35.269C30.1328 35.2712 30.1328 35.2733 30.1328 35.2755C30.1328 35.2776 30.1328 35.2797 30.1328 35.2819C30.1328 35.284 30.1328 35.2861 30.1328 35.2883C30.1328 35.2904 30.1328 35.2925 30.1328 35.2947C30.1328 35.2968 30.1328 35.2989 30.1328 35.3011C30.1328 35.3032 30.1328 35.3053 30.1328 35.3075C30.1328 35.3096 30.1328 35.3117 30.1328 35.3139C30.1328 35.316 30.1328 35.3181 30.1328 35.3203C30.1328 35.3224 30.1328 35.3245 30.1328 35.3267C30.1328 35.3288 30.1328 35.3309 30.1328 35.333C30.1328 35.3352 30.1328 35.3373 30.1328 35.3394C30.1328 35.3416 30.1328 35.3437 30.1328 35.3458C30.1328 35.3479 30.1328 35.3501 30.1328 35.3522C30.1328 35.3543 30.1328 35.3565 30.1328 35.3586C30.1328 35.3607 30.1328 35.3628 30.1328 35.365C30.1328 35.3671 30.1328 35.3692 30.1328 35.3713C30.1328 35.3734 30.1328 35.3756 30.1328 35.3777C30.1328 35.3798 30.1328 35.3819 30.1328 35.3841C30.1328 35.3862 30.1328 35.3883 30.1328 35.3904C30.1328 35.3925 30.1328 35.3947 30.1328 35.3968C30.1328 35.3989 30.1328 35.401 30.1328 35.4031C30.1328 35.4053 30.1328 35.4074 30.1328 35.4095C30.1328 35.4116 30.1328 35.4137 30.1328 35.4159C30.1328 35.418 30.1328 35.4201 30.1328 35.4222C30.1328 35.4243 30.1328 35.4264 30.1328 35.4286C30.1328 35.4307 30.1328 35.4328 30.1328 35.4349C30.1328 35.437 30.1328 35.4391 30.1328 35.4413C30.1328 35.4434 30.1328 35.4455 30.1328 35.4476C30.1328 35.4497 30.1328 35.4518 30.1328 35.4539C30.1328 35.456 30.1328 35.4582 30.1328 35.4603C30.1328 35.4624 30.1328 35.4645 30.1328 35.4666C30.1328 35.4687 30.1328 35.4708 30.1328 35.4729C30.1328 35.475 30.1328 35.4772 30.1328 35.4793C30.1328 35.4814 30.1328 35.4835 30.1328 35.4856C30.1328 35.4877 30.1328 35.4898 30.1328 35.4919C30.1328 35.494 30.1328 35.4961 30.1328 35.4982C30.1328 35.5003 30.1328 35.5024 30.1328 35.5045C30.1328 35.5067 30.1328 35.5088 30.1328 35.5109C30.1328 35.513 30.1328 35.5151 30.1328 35.5172C30.1328 35.5193 30.1328 35.5214 30.1328 35.5235C30.1328 35.5256 30.1328 35.5277 30.1328 35.5298C30.1328 35.5319 30.1328 35.534 30.1328 35.5361C30.1328 35.5382 30.1328 35.5403 30.1328 35.5424C30.1328 35.5445 30.1328 35.5466 30.1328 35.5487C30.1328 35.5508 30.1328 35.5529 30.1328 35.555C30.1328 35.5571 30.1328 35.5592 30.1328 35.5613C30.1328 35.5634 30.1328 35.5655 30.1328 35.5676C30.1328 35.5697 30.1328 35.5718 30.1328 35.5739C30.1328 35.576 30.1328 35.5781 30.1328 35.5802C30.1328 35.5823 30.1328 35.5843 30.1328 35.5864C30.1328 35.5885 30.1328 35.5906 30.1328 35.5927C30.1328 35.5948 30.1328 35.5969 30.1328 35.599C30.1328 35.6011 30.1328 35.6032 30.1328 35.6053C30.1328 35.6074 30.1328 35.6095 30.1328 35.6116C30.1328 35.6136 30.1328 35.6157 30.1328 35.6178C30.1328 35.6199 30.1328 35.622 30.1328 35.6241C30.1328 35.6262 30.1328 35.6283 30.1328 35.6304C30.1328 35.6324 30.1328 35.6345 30.1328 35.6366C30.1328 35.6387 30.1328 35.6408 30.1328 35.6429C30.1328 35.645 30.1328 35.6471 30.1328 35.6491C30.1328 35.6512 30.1328 35.6533 30.1328 35.6554C30.1328 35.6575 30.1328 35.6596 30.1328 35.6616C30.1328 35.6637 30.1328 35.6658 30.1328 35.6679C30.1328 35.67 30.1328 35.6721 30.1328 35.6741C30.1328 35.6762 30.1328 35.6783 30.1328 35.6804C30.1328 35.6825 30.1328 35.6846 30.1328 35.6866C30.1328 35.6887 30.1328 35.6908 30.1328 35.6929C30.1328 35.695 30.1328 35.697 30.1328 35.6991C30.1328 35.7012 30.1328 35.7033 30.1328 35.7053C30.1328 35.7074 30.1328 35.7095 30.1328 35.7116C30.1328 35.7137 30.1328 35.7157 30.1328 35.7178C30.1328 35.7199 30.1328 35.722 30.1328 35.724C30.1328 35.7261 30.1328 35.7282 30.1328 35.7303C30.1328 35.7323 30.1328 35.7344 30.1328 35.7365C30.1328 35.7386 30.1328 35.7406 30.1328 35.7427C30.1328 35.7448 30.1328 35.7468 30.1328 35.7489C30.1328 35.751 30.1328 35.7531 30.1328 35.7551C30.1328 35.7572 30.1328 35.7593 30.1328 35.7613C30.1328 35.7634 30.1328 35.7655 30.1328 35.7675C30.1328 35.7696 30.1328 35.7717 30.1328 35.7738C30.1328 35.7758 30.1328 35.7779 30.1328 35.78C30.1328 35.782 30.1328 35.7841 30.1328 35.7862C30.1328 35.7882 30.1328 35.7903 30.1328 35.7924C30.1328 35.7944 30.1328 35.7965 30.1328 35.7985C30.1328 35.8006 30.1328 35.8027 30.1328 35.8047C30.1328 35.8068 30.1328 35.8089 30.1328 35.8109C30.1328 35.813 30.1328 35.8151 30.1328 35.8171C30.1328 35.8192 30.1328 35.8212 30.1328 35.8233C30.1328 35.8254 30.1328 35.8274 30.1328 35.8295C30.1328 35.8315 30.1328 35.8336 30.1328 35.8357C30.1328 35.8377 30.1328 35.8398 30.1328 35.8418C30.1328 35.8439 30.1328 35.846 30.1328 35.848C30.1328 35.8501 30.1328 35.8521 30.1328 35.8542C30.1328 35.8562 30.1328 35.8583 30.1328 35.8604C30.1328 35.8624 30.1328 35.8645 30.1328 35.8665C30.1328 35.8686 30.1328 35.8706 30.1328 35.8727C30.1328 35.8747 30.1328 35.8768 30.1328 35.8788C30.1328 35.8809 30.1328 35.883 30.1328 35.885C30.1328 35.8871 30.1328 35.8891 30.1328 35.8912C30.1328 35.8932 30.1328 35.8953 30.1328 35.8973C30.1328 35.8994 30.1328 35.9014 30.1328 35.9035C30.1328 35.9055 30.1328 35.9076 30.1328 35.9096C30.1328 35.9117 30.1328 35.9137 30.1328 35.9158C30.1328 35.9178 30.1328 35.9199 30.1328 35.9219C30.1328 35.924 30.1328 35.926 30.1328 35.928C30.1328 35.9301 30.1328 35.9321 30.1328 35.9342C30.1328 35.9362 30.1328 35.9383 30.1328 35.9403C30.1328 35.9424 30.1328 35.9444 30.1328 35.9465C30.1328 35.9485 30.1328 35.9505 30.1328 35.9526C30.1328 35.9546 30.1328 35.9567 30.1328 35.9587C30.1328 35.9608 30.1328 35.9628 30.1328 35.9648C30.1328 35.9669 30.1328 35.9689 30.1328 35.971C30.1328 35.973 30.1328 35.975 30.1328 35.9771C30.1328 35.9791 30.1328 35.9812 30.1328 35.9832C30.1328 35.9852 30.1328 35.9873 30.1328 35.9893C30.1328 35.9913 30.1328 35.9934 30.1328 35.9954C30.1328 35.9975 30.1328 35.9995 30.1328 36.0015C30.1328 36.0036 30.1328 36.0056 30.1328 36.0076C30.1328 36.0097 30.1328 36.0117 30.1328 36.0137C30.1328 36.0158 30.1328 36.0178 30.1328 36.0198C30.1328 36.0219 30.1328 36.0239 30.1328 36.0259C30.1328 36.028 30.1328 36.03 30.1328 36.032C30.1328 36.0341 30.1328 36.0361 30.1328 36.0381C30.1328 36.0402 30.1328 36.0422 30.1328 36.0442C30.1328 36.0463 30.1328 36.0483 30.1328 36.0503C30.1328 36.0523 30.1328 36.0544 30.1328 36.0564C30.1328 36.0584 30.1328 36.0605 30.1328 36.0625C30.1328 36.0645 30.1328 36.0665 30.1328 36.0686C30.1328 36.0706 30.1328 36.0726 30.1328 36.0746C30.1328 36.0767 30.1328 36.0787 30.1328 36.0807C30.1328 36.0827 30.1328 36.0848 30.1328 36.0868C30.1328 36.0888 30.1328 36.0908 30.1328 36.0929C30.1328 36.0949 30.1328 36.0969 30.1328 36.0989C30.1328 36.1009 30.1328 36.103 30.1328 36.105C30.1328 36.107 30.1328 36.109 30.1328 36.1111C30.1328 36.1131 30.1328 36.1151 30.1328 36.1171C30.1328 36.1191 30.1328 36.1212 30.1328 36.1232C30.1328 36.1252 30.1328 36.1272 30.1328 36.1292C30.1328 36.1312 30.1328 36.1333 30.1328 36.1353C30.1328 36.1373 30.1328 36.1393 30.1328 36.1413C30.1328 36.1433 30.1328 36.1454 30.1328 36.1474C30.1328 36.1494 30.1328 36.1514 30.1328 36.1534C30.1328 36.1554 30.1328 36.1574 30.1328 36.1595C30.1328 36.1615 30.1328 36.1635 30.1328 36.1655C30.1328 36.1675 30.1328 36.1695 30.1328 36.1715C30.1328 36.1735 30.1328 36.1756 30.1328 36.1776C30.1328 36.1796 30.1328 36.1816 30.1328 36.1836C30.1328 36.1856 30.1328 36.1876 30.1328 36.1896C30.1328 36.1916 30.1328 36.1936 30.1328 36.1957C30.1328 36.1977 30.1328 36.1997 30.1328 36.2017C30.1328 36.2037 30.1328 36.2057 30.1328 36.2077C30.1328 36.2097 30.1328 36.2117 30.1328 36.2137C30.1328 36.2157 30.1328 36.2177 30.1328 36.2197C30.1328 36.2217 30.1328 36.2237 30.1328 36.2257C30.1328 36.2277 30.1328 36.2297 30.1328 36.2318C30.1328 36.2338 30.1328 36.2358 30.1328 36.2378C30.1328 36.2398 30.1328 36.2418 30.1328 36.2438C30.1328 36.2458 30.1328 36.2478 30.1328 36.2498C30.1328 36.2518 30.1328 36.2538 30.1328 36.2558C30.1328 36.2578 30.1328 36.2598 30.1328 36.2618C30.1328 36.2638 30.1328 36.2658 30.1328 36.2678C30.1328 36.2698 30.1328 36.2718 30.1328 36.2738C30.1328 36.2757 30.1328 36.2777 30.1328 36.2797C30.1328 36.2817 30.1328 36.2837 30.1328 36.2857C30.1328 36.2877 30.1328 36.2897 30.1328 36.2917C30.1328 36.2937 30.1328 36.2957 30.1328 36.2977C30.1328 36.2997 30.1328 36.3017 30.1328 36.3037C30.1328 36.3057 30.1328 36.3077 30.1328 36.3096C30.1328 36.3116 30.1328 36.3136 30.1328 36.3156C30.1328 36.3176 30.1328 36.3196 30.1328 36.3216C30.1328 36.3236 30.1328 36.3256 30.1328 36.3276C30.1328 36.3295 30.1328 36.3315 30.1328 36.3335C30.1328 36.3355 30.1328 36.3375 30.1328 36.3395C30.1328 36.3415 30.1328 36.3435 30.1328 36.3454C30.1328 36.3474 30.1328 36.3494 30.1328 36.3514C30.1328 36.3534 30.1328 36.3554 30.1328 36.3574C30.1328 36.3593 30.1328 36.3613 30.1328 36.3633C30.1328 36.3653 30.1328 36.3673 30.1328 36.3693C30.1328 36.3713 30.1328 36.3732 30.1328 36.3752C30.1328 36.3772 30.1328 36.3792 30.1328 36.3812C30.1328 36.3831 30.1328 36.3851 30.1328 36.3871C30.1328 36.3891 30.1328 36.3911 30.1328 36.393C30.1328 36.395 30.1328 36.397 30.1328 36.399C30.1328 36.401 30.1328 36.4029 30.1328 36.4049C30.1328 36.4069 30.1328 36.4089 30.1328 36.4108C30.1328 36.4128 30.1328 36.4148 30.1328 36.4168C30.1328 36.4188 30.1328 36.4207 30.1328 36.4227C30.1328 36.4247 30.1328 36.4267 30.1328 36.4286C30.1328 36.4306 30.1328 36.4326 30.1328 36.4345C30.1328 36.4365 30.1328 36.4385 30.1328 36.4405C30.1328 36.4424 30.1328 36.4444 30.1328 36.4464C30.1328 36.4484 30.1328 36.4503 30.1328 36.4523C30.1328 36.4543 30.1328 36.4562 30.1328 36.4582C30.1328 36.4602 30.1328 36.4621 30.1328 36.4641C30.1328 36.4661 30.1328 36.4681 30.1328 36.47C30.1328 36.472 30.1328 36.474 30.1328 36.4759C30.1328 36.4779 30.1328 36.4799 30.1328 36.4818C30.1328 36.4838 30.1328 36.4858 30.1328 36.4877C30.1328 36.4897 30.1328 36.4917 30.1328 36.4936C30.1328 36.4956 30.1328 36.4975 30.1328 36.4995C30.1328 36.5015 30.1328 36.5034 30.1328 36.5054C30.1328 36.5074 30.1328 36.5093 30.1328 36.5113C30.1328 36.5133 30.1328 36.5152 30.1328 36.5172C30.1328 36.5191 30.1328 36.5211 30.1328 36.5231C30.1328 36.525 30.1328 36.527 30.1328 36.5289C30.1328 36.5309 30.1328 36.5329 30.1328 36.5348C30.1328 36.5368 30.1328 36.5387 30.1328 36.5407C30.1328 36.5426 30.1328 36.5446 30.1328 36.5466C30.1328 36.5485 30.1328 36.5505 30.1328 36.5524C30.1328 36.5544 30.1328 36.5563 30.1328 36.5583C30.1328 36.5603 30.1328 36.5622 30.1328 36.5642C30.1328 36.5661 30.1328 36.5681 30.1328 36.57C30.1328 36.572 30.1328 36.5739 30.1328 36.5759C30.1328 36.5778 30.1328 36.5798 30.1328 36.5817C30.1328 36.5837 30.1328 36.5856 30.1328 36.5876C30.1328 36.5895 30.1328 36.5915 30.1328 36.5934C30.1328 36.5954 30.1328 36.5973 30.1328 36.5993C30.1328 36.6012 30.1328 36.6032 30.1328 36.6051C30.1328 36.6071 30.1328 36.609 30.1328 36.611C30.1328 36.6129 30.1328 36.6149 30.1328 36.6168C30.1328 36.6188 30.1328 36.6207 30.1328 36.6227C30.1328 36.6246 30.1328 36.6265 30.1328 36.6285C30.1328 36.6304 30.1328 36.6324 30.1328 36.6343C30.1328 36.6363 30.1328 36.6382 30.1328 36.6402C30.1328 36.6421 30.1328 36.644 30.1328 36.646C30.1328 36.6479 30.1328 36.6499 30.1328 36.6518C30.1328 36.6538 30.1328 36.6557 30.1328 36.6576C30.1328 36.6596 30.1328 36.6615 30.1328 36.6635C30.1328 36.6654 30.1328 36.6673 30.1328 36.6693C30.1328 36.6712 30.1328 36.6731 30.1328 36.6751C30.1328 36.677 30.1328 36.679 30.1328 36.6809C30.1328 36.6828 30.1328 36.6848 30.1328 36.6867C30.1328 36.6886 30.1328 36.6906 30.1328 36.6925C30.1328 36.6944 30.1328 36.6964 30.1328 36.6983C30.1328 36.7003 30.1328 36.7022 30.1328 36.7041C30.1328 36.7061 30.1328 36.708 30.1328 36.7099C30.1328 36.7118 30.1328 36.7138 30.1328 36.7157C30.1328 36.7176 30.1328 36.7196 30.1328 36.7215C30.1328 36.7234 30.1328 36.7254 30.1328 36.7273C30.1328 36.7292 30.1328 36.7312 30.1328 36.7331C30.1328 36.735 30.1328 36.7369 30.1328 36.7389C30.1328 36.7408 30.1328 36.7427 30.1328 36.7447C30.1328 36.7466 30.1328 36.7485 30.1328 36.7504C30.1328 36.7524 30.1328 36.7543 30.1328 36.7562C30.1328 36.7581 30.1328 36.7601 30.1328 36.762C30.1328 36.7639 30.1328 36.7658 30.1328 36.7678C30.1328 36.7697 30.1328 36.7716 30.1328 36.7735C30.1328 36.7755 30.1328 36.7774 30.1328 36.7793C30.1328 36.7812 30.1328 36.7831 30.1328 36.7851C30.1328 36.787 30.1328 36.7889 30.1328 36.7908C30.1328 36.7927 30.1328 36.7947 30.1328 36.7966C30.1328 36.7985 30.1328 36.8004 30.1328 36.8023C30.1328 36.8043 30.1328 36.8062 30.1328 36.8081C30.1328 36.81 30.1328 36.8119 30.1328 36.8139C30.1328 36.8158 30.1328 36.8177 30.1328 36.8196C30.1328 36.8215 30.1328 36.8234 30.1328 36.8253C30.1328 36.8273 30.1328 36.8292 30.1328 36.8311C30.1328 36.833 30.1328 36.8349 30.1328 36.8368C30.1328 36.8387 30.1328 36.8407 30.1328 36.8426C30.1328 36.8445 30.1328 36.8464 30.1328 36.8483C30.1328 36.8502 30.1328 36.8521 30.1328 36.854C30.1328 36.856 30.1328 36.8579 30.1328 36.8598C30.1328 36.8617 30.1328 36.8636 30.1328 36.8655C30.1328 36.8674 30.1328 36.8693 30.1328 36.8712C30.1328 36.8731 30.1328 36.875 30.1328 36.877H34.1328C34.1328 36.875 34.1328 36.8731 34.1328 36.8712C34.1328 36.8693 34.1328 36.8674 34.1328 36.8655C34.1328 36.8636 34.1328 36.8617 34.1328 36.8598C34.1328 36.8579 34.1328 36.856 34.1328 36.854C34.1328 36.8521 34.1328 36.8502 34.1328 36.8483C34.1328 36.8464 34.1328 36.8445 34.1328 36.8426C34.1328 36.8407 34.1328 36.8387 34.1328 36.8368C34.1328 36.8349 34.1328 36.833 34.1328 36.8311C34.1328 36.8292 34.1328 36.8273 34.1328 36.8253C34.1328 36.8234 34.1328 36.8215 34.1328 36.8196C34.1328 36.8177 34.1328 36.8158 34.1328 36.8139C34.1328 36.8119 34.1328 36.81 34.1328 36.8081C34.1328 36.8062 34.1328 36.8043 34.1328 36.8023C34.1328 36.8004 34.1328 36.7985 34.1328 36.7966C34.1328 36.7947 34.1328 36.7927 34.1328 36.7908C34.1328 36.7889 34.1328 36.787 34.1328 36.7851C34.1328 36.7831 34.1328 36.7812 34.1328 36.7793C34.1328 36.7774 34.1328 36.7755 34.1328 36.7735C34.1328 36.7716 34.1328 36.7697 34.1328 36.7678C34.1328 36.7658 34.1328 36.7639 34.1328 36.762C34.1328 36.7601 34.1328 36.7581 34.1328 36.7562C34.1328 36.7543 34.1328 36.7524 34.1328 36.7504C34.1328 36.7485 34.1328 36.7466 34.1328 36.7447C34.1328 36.7427 34.1328 36.7408 34.1328 36.7389C34.1328 36.7369 34.1328 36.735 34.1328 36.7331C34.1328 36.7312 34.1328 36.7292 34.1328 36.7273C34.1328 36.7254 34.1328 36.7234 34.1328 36.7215C34.1328 36.7196 34.1328 36.7176 34.1328 36.7157C34.1328 36.7138 34.1328 36.7118 34.1328 36.7099C34.1328 36.708 34.1328 36.7061 34.1328 36.7041C34.1328 36.7022 34.1328 36.7003 34.1328 36.6983C34.1328 36.6964 34.1328 36.6944 34.1328 36.6925C34.1328 36.6906 34.1328 36.6886 34.1328 36.6867C34.1328 36.6848 34.1328 36.6828 34.1328 36.6809C34.1328 36.679 34.1328 36.677 34.1328 36.6751C34.1328 36.6731 34.1328 36.6712 34.1328 36.6693C34.1328 36.6673 34.1328 36.6654 34.1328 36.6635C34.1328 36.6615 34.1328 36.6596 34.1328 36.6576C34.1328 36.6557 34.1328 36.6538 34.1328 36.6518C34.1328 36.6499 34.1328 36.6479 34.1328 36.646C34.1328 36.644 34.1328 36.6421 34.1328 36.6402C34.1328 36.6382 34.1328 36.6363 34.1328 36.6343C34.1328 36.6324 34.1328 36.6304 34.1328 36.6285C34.1328 36.6265 34.1328 36.6246 34.1328 36.6227C34.1328 36.6207 34.1328 36.6188 34.1328 36.6168C34.1328 36.6149 34.1328 36.6129 34.1328 36.611C34.1328 36.609 34.1328 36.6071 34.1328 36.6051C34.1328 36.6032 34.1328 36.6012 34.1328 36.5993C34.1328 36.5973 34.1328 36.5954 34.1328 36.5934C34.1328 36.5915 34.1328 36.5895 34.1328 36.5876C34.1328 36.5856 34.1328 36.5837 34.1328 36.5817C34.1328 36.5798 34.1328 36.5778 34.1328 36.5759C34.1328 36.5739 34.1328 36.572 34.1328 36.57C34.1328 36.5681 34.1328 36.5661 34.1328 36.5642C34.1328 36.5622 34.1328 36.5603 34.1328 36.5583C34.1328 36.5563 34.1328 36.5544 34.1328 36.5524C34.1328 36.5505 34.1328 36.5485 34.1328 36.5466C34.1328 36.5446 34.1328 36.5426 34.1328 36.5407C34.1328 36.5387 34.1328 36.5368 34.1328 36.5348C34.1328 36.5329 34.1328 36.5309 34.1328 36.5289C34.1328 36.527 34.1328 36.525 34.1328 36.5231C34.1328 36.5211 34.1328 36.5191 34.1328 36.5172C34.1328 36.5152 34.1328 36.5133 34.1328 36.5113C34.1328 36.5093 34.1328 36.5074 34.1328 36.5054C34.1328 36.5034 34.1328 36.5015 34.1328 36.4995C34.1328 36.4975 34.1328 36.4956 34.1328 36.4936C34.1328 36.4917 34.1328 36.4897 34.1328 36.4877C34.1328 36.4858 34.1328 36.4838 34.1328 36.4818C34.1328 36.4799 34.1328 36.4779 34.1328 36.4759C34.1328 36.474 34.1328 36.472 34.1328 36.47C34.1328 36.4681 34.1328 36.4661 34.1328 36.4641C34.1328 36.4621 34.1328 36.4602 34.1328 36.4582C34.1328 36.4562 34.1328 36.4543 34.1328 36.4523C34.1328 36.4503 34.1328 36.4484 34.1328 36.4464C34.1328 36.4444 34.1328 36.4424 34.1328 36.4405C34.1328 36.4385 34.1328 36.4365 34.1328 36.4345C34.1328 36.4326 34.1328 36.4306 34.1328 36.4286C34.1328 36.4267 34.1328 36.4247 34.1328 36.4227C34.1328 36.4207 34.1328 36.4188 34.1328 36.4168C34.1328 36.4148 34.1328 36.4128 34.1328 36.4108C34.1328 36.4089 34.1328 36.4069 34.1328 36.4049C34.1328 36.4029 34.1328 36.401 34.1328 36.399C34.1328 36.397 34.1328 36.395 34.1328 36.393C34.1328 36.3911 34.1328 36.3891 34.1328 36.3871C34.1328 36.3851 34.1328 36.3831 34.1328 36.3812C34.1328 36.3792 34.1328 36.3772 34.1328 36.3752C34.1328 36.3732 34.1328 36.3713 34.1328 36.3693C34.1328 36.3673 34.1328 36.3653 34.1328 36.3633C34.1328 36.3613 34.1328 36.3593 34.1328 36.3574C34.1328 36.3554 34.1328 36.3534 34.1328 36.3514C34.1328 36.3494 34.1328 36.3474 34.1328 36.3454C34.1328 36.3435 34.1328 36.3415 34.1328 36.3395C34.1328 36.3375 34.1328 36.3355 34.1328 36.3335C34.1328 36.3315 34.1328 36.3295 34.1328 36.3276C34.1328 36.3256 34.1328 36.3236 34.1328 36.3216C34.1328 36.3196 34.1328 36.3176 34.1328 36.3156C34.1328 36.3136 34.1328 36.3116 34.1328 36.3096C34.1328 36.3077 34.1328 36.3057 34.1328 36.3037C34.1328 36.3017 34.1328 36.2997 34.1328 36.2977C34.1328 36.2957 34.1328 36.2937 34.1328 36.2917C34.1328 36.2897 34.1328 36.2877 34.1328 36.2857C34.1328 36.2837 34.1328 36.2817 34.1328 36.2797C34.1328 36.2777 34.1328 36.2757 34.1328 36.2738C34.1328 36.2718 34.1328 36.2698 34.1328 36.2678C34.1328 36.2658 34.1328 36.2638 34.1328 36.2618C34.1328 36.2598 34.1328 36.2578 34.1328 36.2558C34.1328 36.2538 34.1328 36.2518 34.1328 36.2498C34.1328 36.2478 34.1328 36.2458 34.1328 36.2438C34.1328 36.2418 34.1328 36.2398 34.1328 36.2378C34.1328 36.2358 34.1328 36.2338 34.1328 36.2318C34.1328 36.2297 34.1328 36.2277 34.1328 36.2257C34.1328 36.2237 34.1328 36.2217 34.1328 36.2197C34.1328 36.2177 34.1328 36.2157 34.1328 36.2137C34.1328 36.2117 34.1328 36.2097 34.1328 36.2077C34.1328 36.2057 34.1328 36.2037 34.1328 36.2017C34.1328 36.1997 34.1328 36.1977 34.1328 36.1957C34.1328 36.1936 34.1328 36.1916 34.1328 36.1896C34.1328 36.1876 34.1328 36.1856 34.1328 36.1836C34.1328 36.1816 34.1328 36.1796 34.1328 36.1776C34.1328 36.1756 34.1328 36.1735 34.1328 36.1715C34.1328 36.1695 34.1328 36.1675 34.1328 36.1655C34.1328 36.1635 34.1328 36.1615 34.1328 36.1595C34.1328 36.1574 34.1328 36.1554 34.1328 36.1534C34.1328 36.1514 34.1328 36.1494 34.1328 36.1474C34.1328 36.1454 34.1328 36.1433 34.1328 36.1413C34.1328 36.1393 34.1328 36.1373 34.1328 36.1353C34.1328 36.1333 34.1328 36.1312 34.1328 36.1292C34.1328 36.1272 34.1328 36.1252 34.1328 36.1232C34.1328 36.1212 34.1328 36.1191 34.1328 36.1171C34.1328 36.1151 34.1328 36.1131 34.1328 36.1111C34.1328 36.109 34.1328 36.107 34.1328 36.105C34.1328 36.103 34.1328 36.1009 34.1328 36.0989C34.1328 36.0969 34.1328 36.0949 34.1328 36.0929C34.1328 36.0908 34.1328 36.0888 34.1328 36.0868C34.1328 36.0848 34.1328 36.0827 34.1328 36.0807C34.1328 36.0787 34.1328 36.0767 34.1328 36.0746C34.1328 36.0726 34.1328 36.0706 34.1328 36.0686C34.1328 36.0665 34.1328 36.0645 34.1328 36.0625C34.1328 36.0605 34.1328 36.0584 34.1328 36.0564C34.1328 36.0544 34.1328 36.0523 34.1328 36.0503C34.1328 36.0483 34.1328 36.0463 34.1328 36.0442C34.1328 36.0422 34.1328 36.0402 34.1328 36.0381C34.1328 36.0361 34.1328 36.0341 34.1328 36.032C34.1328 36.03 34.1328 36.028 34.1328 36.0259C34.1328 36.0239 34.1328 36.0219 34.1328 36.0198C34.1328 36.0178 34.1328 36.0158 34.1328 36.0137C34.1328 36.0117 34.1328 36.0097 34.1328 36.0076C34.1328 36.0056 34.1328 36.0036 34.1328 36.0015C34.1328 35.9995 34.1328 35.9975 34.1328 35.9954C34.1328 35.9934 34.1328 35.9913 34.1328 35.9893C34.1328 35.9873 34.1328 35.9852 34.1328 35.9832C34.1328 35.9812 34.1328 35.9791 34.1328 35.9771C34.1328 35.975 34.1328 35.973 34.1328 35.971C34.1328 35.9689 34.1328 35.9669 34.1328 35.9648C34.1328 35.9628 34.1328 35.9608 34.1328 35.9587C34.1328 35.9567 34.1328 35.9546 34.1328 35.9526C34.1328 35.9505 34.1328 35.9485 34.1328 35.9465C34.1328 35.9444 34.1328 35.9424 34.1328 35.9403C34.1328 35.9383 34.1328 35.9362 34.1328 35.9342C34.1328 35.9321 34.1328 35.9301 34.1328 35.928C34.1328 35.926 34.1328 35.924 34.1328 35.9219C34.1328 35.9199 34.1328 35.9178 34.1328 35.9158C34.1328 35.9137 34.1328 35.9117 34.1328 35.9096C34.1328 35.9076 34.1328 35.9055 34.1328 35.9035C34.1328 35.9014 34.1328 35.8994 34.1328 35.8973C34.1328 35.8953 34.1328 35.8932 34.1328 35.8912C34.1328 35.8891 34.1328 35.8871 34.1328 35.885C34.1328 35.883 34.1328 35.8809 34.1328 35.8788C34.1328 35.8768 34.1328 35.8747 34.1328 35.8727C34.1328 35.8706 34.1328 35.8686 34.1328 35.8665C34.1328 35.8645 34.1328 35.8624 34.1328 35.8604C34.1328 35.8583 34.1328 35.8562 34.1328 35.8542C34.1328 35.8521 34.1328 35.8501 34.1328 35.848C34.1328 35.846 34.1328 35.8439 34.1328 35.8418C34.1328 35.8398 34.1328 35.8377 34.1328 35.8357C34.1328 35.8336 34.1328 35.8315 34.1328 35.8295C34.1328 35.8274 34.1328 35.8254 34.1328 35.8233C34.1328 35.8212 34.1328 35.8192 34.1328 35.8171C34.1328 35.8151 34.1328 35.813 34.1328 35.8109C34.1328 35.8089 34.1328 35.8068 34.1328 35.8047C34.1328 35.8027 34.1328 35.8006 34.1328 35.7985C34.1328 35.7965 34.1328 35.7944 34.1328 35.7924C34.1328 35.7903 34.1328 35.7882 34.1328 35.7862C34.1328 35.7841 34.1328 35.782 34.1328 35.78C34.1328 35.7779 34.1328 35.7758 34.1328 35.7738C34.1328 35.7717 34.1328 35.7696 34.1328 35.7675C34.1328 35.7655 34.1328 35.7634 34.1328 35.7613C34.1328 35.7593 34.1328 35.7572 34.1328 35.7551C34.1328 35.7531 34.1328 35.751 34.1328 35.7489C34.1328 35.7468 34.1328 35.7448 34.1328 35.7427C34.1328 35.7406 34.1328 35.7386 34.1328 35.7365C34.1328 35.7344 34.1328 35.7323 34.1328 35.7303C34.1328 35.7282 34.1328 35.7261 34.1328 35.724C34.1328 35.722 34.1328 35.7199 34.1328 35.7178C34.1328 35.7157 34.1328 35.7137 34.1328 35.7116C34.1328 35.7095 34.1328 35.7074 34.1328 35.7053C34.1328 35.7033 34.1328 35.7012 34.1328 35.6991C34.1328 35.697 34.1328 35.695 34.1328 35.6929C34.1328 35.6908 34.1328 35.6887 34.1328 35.6866C34.1328 35.6846 34.1328 35.6825 34.1328 35.6804C34.1328 35.6783 34.1328 35.6762 34.1328 35.6741C34.1328 35.6721 34.1328 35.67 34.1328 35.6679C34.1328 35.6658 34.1328 35.6637 34.1328 35.6616C34.1328 35.6596 34.1328 35.6575 34.1328 35.6554C34.1328 35.6533 34.1328 35.6512 34.1328 35.6491C34.1328 35.6471 34.1328 35.645 34.1328 35.6429C34.1328 35.6408 34.1328 35.6387 34.1328 35.6366C34.1328 35.6345 34.1328 35.6324 34.1328 35.6304C34.1328 35.6283 34.1328 35.6262 34.1328 35.6241C34.1328 35.622 34.1328 35.6199 34.1328 35.6178C34.1328 35.6157 34.1328 35.6136 34.1328 35.6116C34.1328 35.6095 34.1328 35.6074 34.1328 35.6053C34.1328 35.6032 34.1328 35.6011 34.1328 35.599C34.1328 35.5969 34.1328 35.5948 34.1328 35.5927C34.1328 35.5906 34.1328 35.5885 34.1328 35.5864C34.1328 35.5843 34.1328 35.5823 34.1328 35.5802C34.1328 35.5781 34.1328 35.576 34.1328 35.5739C34.1328 35.5718 34.1328 35.5697 34.1328 35.5676C34.1328 35.5655 34.1328 35.5634 34.1328 35.5613C34.1328 35.5592 34.1328 35.5571 34.1328 35.555C34.1328 35.5529 34.1328 35.5508 34.1328 35.5487C34.1328 35.5466 34.1328 35.5445 34.1328 35.5424C34.1328 35.5403 34.1328 35.5382 34.1328 35.5361C34.1328 35.534 34.1328 35.5319 34.1328 35.5298C34.1328 35.5277 34.1328 35.5256 34.1328 35.5235C34.1328 35.5214 34.1328 35.5193 34.1328 35.5172C34.1328 35.5151 34.1328 35.513 34.1328 35.5109C34.1328 35.5088 34.1328 35.5067 34.1328 35.5045C34.1328 35.5024 34.1328 35.5003 34.1328 35.4982C34.1328 35.4961 34.1328 35.494 34.1328 35.4919C34.1328 35.4898 34.1328 35.4877 34.1328 35.4856C34.1328 35.4835 34.1328 35.4814 34.1328 35.4793C34.1328 35.4772 34.1328 35.475 34.1328 35.4729C34.1328 35.4708 34.1328 35.4687 34.1328 35.4666C34.1328 35.4645 34.1328 35.4624 34.1328 35.4603C34.1328 35.4582 34.1328 35.456 34.1328 35.4539C34.1328 35.4518 34.1328 35.4497 34.1328 35.4476C34.1328 35.4455 34.1328 35.4434 34.1328 35.4413C34.1328 35.4391 34.1328 35.437 34.1328 35.4349C34.1328 35.4328 34.1328 35.4307 34.1328 35.4286C34.1328 35.4264 34.1328 35.4243 34.1328 35.4222C34.1328 35.4201 34.1328 35.418 34.1328 35.4159C34.1328 35.4137 34.1328 35.4116 34.1328 35.4095C34.1328 35.4074 34.1328 35.4053 34.1328 35.4031C34.1328 35.401 34.1328 35.3989 34.1328 35.3968C34.1328 35.3947 34.1328 35.3925 34.1328 35.3904C34.1328 35.3883 34.1328 35.3862 34.1328 35.3841C34.1328 35.3819 34.1328 35.3798 34.1328 35.3777C34.1328 35.3756 34.1328 35.3734 34.1328 35.3713C34.1328 35.3692 34.1328 35.3671 34.1328 35.365C34.1328 35.3628 34.1328 35.3607 34.1328 35.3586C34.1328 35.3565 34.1328 35.3543 34.1328 35.3522C34.1328 35.3501 34.1328 35.3479 34.1328 35.3458C34.1328 35.3437 34.1328 35.3416 34.1328 35.3394C34.1328 35.3373 34.1328 35.3352 34.1328 35.333C34.1328 35.3309 34.1328 35.3288 34.1328 35.3267C34.1328 35.3245 34.1328 35.3224 34.1328 35.3203C34.1328 35.3181 34.1328 35.316 34.1328 35.3139C34.1328 35.3117 34.1328 35.3096 34.1328 35.3075C34.1328 35.3053 34.1328 35.3032 34.1328 35.3011C34.1328 35.2989 34.1328 35.2968 34.1328 35.2947C34.1328 35.2925 34.1328 35.2904 34.1328 35.2883C34.1328 35.2861 34.1328 35.284 34.1328 35.2819C34.1328 35.2797 34.1328 35.2776 34.1328 35.2755C34.1328 35.2733 34.1328 35.2712 34.1328 35.269C34.1328 35.2669 34.1328 35.2648 34.1328 35.2626C34.1328 35.2605 34.1328 35.2584 34.1328 35.2562C34.1328 35.2541 34.1328 35.2519 34.1328 35.2498C34.1328 35.2477 34.1328 35.2455 34.1328 35.2434C34.1328 35.2412 34.1328 35.2391 34.1328 35.2369C34.1328 35.2348 34.1328 35.2327 34.1328 35.2305C34.1328 35.2284 34.1328 35.2262 34.1328 35.2241C34.1328 35.2219 34.1328 35.2198 34.1328 35.2177C34.1328 35.2155 34.1328 35.2134 34.1328 35.2112C34.1328 35.2091 34.1328 35.2069 34.1328 35.2048C34.1328 35.2026 34.1328 35.2005 34.1328 35.1983C34.1328 35.1962 34.1328 35.1941 34.1328 35.1919C34.1328 35.1898 34.1328 35.1876 34.1328 35.1855C34.1328 35.1833 34.1328 35.1812 34.1328 35.179C34.1328 35.1769 34.1328 35.1747 34.1328 35.1726C34.1328 35.1704 34.1328 35.1683 34.1328 35.1661C34.1328 35.164 34.1328 35.1618 34.1328 35.1596C34.1328 35.1575 34.1328 35.1553 34.1328 35.1532C34.1328 35.151 34.1328 35.1489 34.1328 35.1467C34.1328 35.1446 34.1328 35.1424 34.1328 35.1403C34.1328 35.1381 34.1328 35.136 34.1328 35.1338C34.1328 35.1316 34.1328 35.1295 34.1328 35.1273C34.1328 35.1252 34.1328 35.123 34.1328 35.1209C34.1328 35.1187 34.1328 35.1165 34.1328 35.1144C34.1328 35.1122 34.1328 35.1101 34.1328 35.1079C34.1328 35.1057 34.1328 35.1036 34.1328 35.1014C34.1328 35.0993 34.1328 35.0971 34.1328 35.0949C34.1328 35.0928 34.1328 35.0906 34.1328 35.0885C34.1328 35.0863 34.1328 35.0841 34.1328 35.082C34.1328 35.0798 34.1328 35.0776 34.1328 35.0755C34.1328 35.0733 34.1328 35.0712 34.1328 35.069C34.1328 35.0668 34.1328 35.0647 34.1328 35.0625C34.1328 35.0603 34.1328 35.0582 34.1328 35.056C34.1328 35.0538 34.1328 35.0517 34.1328 35.0495C34.1328 35.0473 34.1328 35.0452 34.1328 35.043C34.1328 35.0408 34.1328 35.0387 34.1328 35.0365C34.1328 35.0343 34.1328 35.0321 34.1328 35.03C34.1328 35.0278 34.1328 35.0256 34.1328 35.0235C34.1328 35.0213 34.1328 35.0191 34.1328 35.017C34.1328 35.0148 34.1328 35.0126 34.1328 35.0104C34.1328 35.0083 34.1328 35.0061 34.1328 35.0039C34.1328 35.0017 34.1328 34.9996 34.1328 34.9974C34.1328 34.9952 34.1328 34.993 34.1328 34.9909C34.1328 34.9887 34.1328 34.9865 34.1328 34.9843C34.1328 34.9822 34.1328 34.98 34.1328 34.9778C34.1328 34.9756 34.1328 34.9735 34.1328 34.9713C34.1328 34.9691 34.1328 34.9669 34.1328 34.9648C34.1328 34.9626 34.1328 34.9604 34.1328 34.9582C34.1328 34.956 34.1328 34.9539 34.1328 34.9517C34.1328 34.9495 34.1328 34.9473 34.1328 34.9451C34.1328 34.943 34.1328 34.9408 34.1328 34.9386C34.1328 34.9364 34.1328 34.9342 34.1328 34.932C34.1328 34.9299 34.1328 34.9277 34.1328 34.9255C34.1328 34.9233 34.1328 34.9211 34.1328 34.9189C34.1328 34.9168 34.1328 34.9146 34.1328 34.9124C34.1328 34.9102 34.1328 34.908 34.1328 34.9058C34.1328 34.9036 34.1328 34.9015 34.1328 34.8993C34.1328 34.8971 34.1328 34.8949 34.1328 34.8927C34.1328 34.8905 34.1328 34.8883 34.1328 34.8861C34.1328 34.8839 34.1328 34.8818 34.1328 34.8796C34.1328 34.8774 34.1328 34.8752 34.1328 34.873C34.1328 34.8708 34.1328 34.8686 34.1328 34.8664C34.1328 34.8642 34.1328 34.862 34.1328 34.8598C34.1328 34.8577 34.1328 34.8555 34.1328 34.8533C34.1328 34.8511 34.1328 34.8489 34.1328 34.8467C34.1328 34.8445 34.1328 34.8423 34.1328 34.8401C34.1328 34.8379 34.1328 34.8357 34.1328 34.8335C34.1328 34.8313 34.1328 34.8291 34.1328 34.8269C34.1328 34.8247 34.1328 34.8225 34.1328 34.8203C34.1328 34.8181 34.1328 34.8159 34.1328 34.8137C34.1328 34.8115 34.1328 34.8093 34.1328 34.8071C34.1328 34.8049 34.1328 34.8027 34.1328 34.8005C34.1328 34.7983 34.1328 34.7961 34.1328 34.7939C34.1328 34.7917 34.1328 34.7895 34.1328 34.7873C34.1328 34.7851 34.1328 34.7829 34.1328 34.7807C34.1328 34.7785 34.1328 34.7763 34.1328 34.7741C34.1328 34.7719 34.1328 34.7697 34.1328 34.7675C34.1328 34.7653 34.1328 34.7631 34.1328 34.7609C34.1328 34.7587 34.1328 34.7565 34.1328 34.7543C34.1328 34.7521 34.1328 34.7499 34.1328 34.7477C34.1328 34.7454 34.1328 34.7432 34.1328 34.741C34.1328 34.7388 34.1328 34.7366 34.1328 34.7344C34.1328 34.7322 34.1328 34.73 34.1328 34.7278C34.1328 34.7256 34.1328 34.7234 34.1328 34.7211C34.1328 34.7189 34.1328 34.7167 34.1328 34.7145C34.1328 34.7123 34.1328 34.7101 34.1328 34.7079C34.1328 34.7057 34.1328 34.7035 34.1328 34.7012C34.1328 34.699 34.1328 34.6968 34.1328 34.6946C34.1328 34.6924 34.1328 34.6902 34.1328 34.688C34.1328 34.6857 34.1328 34.6835 34.1328 34.6813C34.1328 34.6791 34.1328 34.6769 34.1328 34.6747C34.1328 34.6724 34.1328 34.6702 34.1328 34.668C34.1328 34.6658 34.1328 34.6636 34.1328 34.6614C34.1328 34.6591 34.1328 34.6569 34.1328 34.6547C34.1328 34.6525 34.1328 34.6503 34.1328 34.648C34.1328 34.6458 34.1328 34.6436 34.1328 34.6414C34.1328 34.6392 34.1328 34.6369 34.1328 34.6347C34.1328 34.6325 34.1328 34.6303 34.1328 34.628C34.1328 34.6258 34.1328 34.6236 34.1328 34.6214C34.1328 34.6192 34.1328 34.6169 34.1328 34.6147C34.1328 34.6125 34.1328 34.6103 34.1328 34.608C34.1328 34.6058 34.1328 34.6036 34.1328 34.6013C34.1328 34.5991 34.1328 34.5969 34.1328 34.5947C34.1328 34.5924 34.1328 34.5902 34.1328 34.588C34.1328 34.5858 34.1328 34.5835 34.1328 34.5813C34.1328 34.5791 34.1328 34.5768 34.1328 34.5746C34.1328 34.5724 34.1328 34.5702 34.1328 34.5679C34.1328 34.5657 34.1328 34.5635 34.1328 34.5612C34.1328 34.559 34.1328 34.5568 34.1328 34.5545C34.1328 34.5523 34.1328 34.5501 34.1328 34.5478C34.1328 34.5456 34.1328 34.5434 34.1328 34.5411C34.1328 34.5389 34.1328 34.5367 34.1328 34.5344C34.1328 34.5322 34.1328 34.53 34.1328 34.5277C34.1328 34.5255 34.1328 34.5232 34.1328 34.521C34.1328 34.5188 34.1328 34.5165 34.1328 34.5143C34.1328 34.5121 34.1328 34.5098 34.1328 34.5076C34.1328 34.5053 34.1328 34.5031 34.1328 34.5009C34.1328 34.4986 34.1328 34.4964 34.1328 34.4941C34.1328 34.4919 34.1328 34.4897 34.1328 34.4874C34.1328 34.4852 34.1328 34.4829 34.1328 34.4807C34.1328 34.4785 34.1328 34.4762 34.1328 34.474C34.1328 34.4717 34.1328 34.4695 34.1328 34.4672C34.1328 34.465 34.1328 34.4628 34.1328 34.4605C34.1328 34.4583 34.1328 34.456 34.1328 34.4538C34.1328 34.4515 34.1328 34.4493 34.1328 34.447C34.1328 34.4448 34.1328 34.4425 34.1328 34.4403C34.1328 34.4381 34.1328 34.4358 34.1328 34.4336C34.1328 34.4313 34.1328 34.4291 34.1328 34.4268C34.1328 34.4246 34.1328 34.4223 34.1328 34.4201C34.1328 34.4178 34.1328 34.4156 34.1328 34.4133C34.1328 34.4111 34.1328 34.4088 34.1328 34.4066C34.1328 34.4043 34.1328 34.4021 34.1328 34.3998C34.1328 34.3976 34.1328 34.3953 34.1328 34.393C34.1328 34.3908 34.1328 34.3885 34.1328 34.3863C34.1328 34.384 34.1328 34.3818 34.1328 34.3795C34.1328 34.3773 34.1328 34.375 34.1328 34.3728C34.1328 34.3705 34.1328 34.3682 34.1328 34.366C34.1328 34.3637 34.1328 34.3615 34.1328 34.3592C34.1328 34.357 34.1328 34.3547 34.1328 34.3524C34.1328 34.3502 34.1328 34.3479 34.1328 34.3457C34.1328 34.3434 34.1328 34.3411 34.1328 34.3389C34.1328 34.3366 34.1328 34.3344 34.1328 34.3321C34.1328 34.3298 34.1328 34.3276 34.1328 34.3253C34.1328 34.3231 34.1328 34.3208 34.1328 34.3185C34.1328 34.3163 34.1328 34.314 34.1328 34.3117C34.1328 34.3095 34.1328 34.3072 34.1328 34.3049C34.1328 34.3027 34.1328 34.3004 34.1328 34.2981C34.1328 34.2959 34.1328 34.2936 34.1328 34.2914C34.1328 34.2891 34.1328 34.2868 34.1328 34.2846C34.1328 34.2823 34.1328 34.28 34.1328 34.2777C34.1328 34.2755 34.1328 34.2732 34.1328 34.2709C34.1328 34.2687 34.1328 34.2664 34.1328 34.2641C34.1328 34.2619 34.1328 34.2596 34.1328 34.2573C34.1328 34.2551 34.1328 34.2528 34.1328 34.2505C34.1328 34.2482 34.1328 34.246 34.1328 34.2437C34.1328 34.2414 34.1328 34.2391 34.1328 34.2369C34.1328 34.2346 34.1328 34.2323 34.1328 34.2301C34.1328 34.2278 34.1328 34.2255 34.1328 34.2232C34.1328 34.221 34.1328 34.2187 34.1328 34.2164C34.1328 34.2141 34.1328 34.2119 34.1328 34.2096C34.1328 34.2073 34.1328 34.205 34.1328 34.2027C34.1328 34.2005 34.1328 34.1982 34.1328 34.1959C34.1328 34.1936 34.1328 34.1914 34.1328 34.1891C34.1328 34.1868 34.1328 34.1845 34.1328 34.1822C34.1328 34.18 34.1328 34.1777 34.1328 34.1754C34.1328 34.1731 34.1328 34.1708 34.1328 34.1685C34.1328 34.1663 34.1328 34.164 34.1328 34.1617C34.1328 34.1594 34.1328 34.1571 34.1328 34.1549C34.1328 34.1526 34.1328 34.1503 34.1328 34.148C34.1328 34.1457 34.1328 34.1434 34.1328 34.1411C34.1328 34.1389 34.1328 34.1366 34.1328 34.1343C34.1328 34.132 34.1328 34.1297 34.1328 34.1274C34.1328 34.1251 34.1328 34.1228 34.1328 34.1206C34.1328 34.1183 34.1328 34.116 34.1328 34.1137C34.1328 34.1114 34.1328 34.1091 34.1328 34.1068C34.1328 34.1045 34.1328 34.1022 34.1328 34.1C34.1328 34.0977 34.1328 34.0954 34.1328 34.0931C34.1328 34.0908 34.1328 34.0885 34.1328 34.0862C34.1328 34.0839 34.1328 34.0816 34.1328 34.0793C34.1328 34.077 34.1328 34.0747 34.1328 34.0724C34.1328 34.0702 34.1328 34.0679 34.1328 34.0656C34.1328 34.0633 34.1328 34.061 34.1328 34.0587C34.1328 34.0564 34.1328 34.0541 34.1328 34.0518C34.1328 34.0495 34.1328 34.0472 34.1328 34.0449C34.1328 34.0426 34.1328 34.0403 34.1328 34.038C34.1328 34.0357 34.1328 34.0334 34.1328 34.0311C34.1328 34.0288 34.1328 34.0265 34.1328 34.0242C34.1328 34.0219 34.1328 34.0196 34.1328 34.0173C34.1328 34.015 34.1328 34.0127 34.1328 34.0104C34.1328 34.0081 34.1328 34.0058 34.1328 34.0035C34.1328 34.0012 34.1328 33.9989 34.1328 33.9966C34.1328 33.9943 34.1328 33.992 34.1328 33.9897C34.1328 33.9874 34.1328 33.9851 34.1328 33.9828C34.1328 33.9804 34.1328 33.9781 34.1328 33.9758C34.1328 33.9735 34.1328 33.9712 34.1328 33.9689C34.1328 33.9666 34.1328 33.9643 34.1328 33.962C34.1328 33.9597 34.1328 33.9574 34.1328 33.9551C34.1328 33.9528 34.1328 33.9505 34.1328 33.9481C34.1328 33.9458 34.1328 33.9435 34.1328 33.9412C34.1328 33.9389 34.1328 33.9366 34.1328 33.9343C34.1328 33.932 34.1328 33.9297 34.1328 33.9273C34.1328 33.925 34.1328 33.9227 34.1328 33.9204C34.1328 33.9181 34.1328 33.9158 34.1328 33.9135C34.1328 33.9111 34.1328 33.9088 34.1328 33.9065C34.1328 33.9042 34.1328 33.9019 34.1328 33.8996C34.1328 33.8973 34.1328 33.8949 34.1328 33.8926C34.1328 33.8903 34.1328 33.888 34.1328 33.8857C34.1328 33.8834 34.1328 33.881 34.1328 33.8787C34.1328 33.8764 34.1328 33.8741 34.1328 33.8718C34.1328 33.8694 34.1328 33.8671 34.1328 33.8648C34.1328 33.8625 34.1328 33.8602 34.1328 33.8578C34.1328 33.8555 34.1328 33.8532 34.1328 33.8509C34.1328 33.8486 34.1328 33.8462 34.1328 33.8439C34.1328 33.8416 34.1328 33.8393 34.1328 33.8369C34.1328 33.8346 34.1328 33.8323 34.1328 33.83C34.1328 33.8276 34.1328 33.8253 34.1328 33.823C34.1328 33.8207 34.1328 33.8183 34.1328 33.816C34.1328 33.8137 34.1328 33.8114 34.1328 33.809C34.1328 33.8067 34.1328 33.8044 34.1328 33.802C34.1328 33.7997 34.1328 33.7974 34.1328 33.7951C34.1328 33.7927 34.1328 33.7904 34.1328 33.7881C34.1328 33.7857 34.1328 33.7834 34.1328 33.7811C34.1328 33.7788 34.1328 33.7764 34.1328 33.7741C34.1328 33.7718 34.1328 33.7694 34.1328 33.7671C34.1328 33.7648 34.1328 33.7624 34.1328 33.7601C34.1328 33.7578 34.1328 33.7554 34.1328 33.7531C34.1328 33.7508 34.1328 33.7484 34.1328 33.7461C34.1328 33.7438 34.1328 33.7414 34.1328 33.7391C34.1328 33.7367 34.1328 33.7344 34.1328 33.7321C34.1328 33.7297 34.1328 33.7274 34.1328 33.7251C34.1328 33.7227 34.1328 33.7204 34.1328 33.7181C34.1328 33.7157 34.1328 33.7134 34.1328 33.711C34.1328 33.7087 34.1328 33.7064 34.1328 33.704C34.1328 33.7017 34.1328 33.6993 34.1328 33.697C34.1328 33.6947 34.1328 33.6923 34.1328 33.69C34.1328 33.6876 34.1328 33.6853 34.1328 33.6829C34.1328 33.6806 34.1328 33.6783 34.1328 33.6759C34.1328 33.6736 34.1328 33.6712 34.1328 33.6689C34.1328 33.6665 34.1328 33.6642 34.1328 33.6618C34.1328 33.6595 34.1328 33.6572 34.1328 33.6548C34.1328 33.6525 34.1328 33.6501 34.1328 33.6478C34.1328 33.6454 34.1328 33.6431 34.1328 33.6407C34.1328 33.6384 34.1328 33.636 34.1328 33.6337C34.1328 33.6313 34.1328 33.629 34.1328 33.6266C34.1328 33.6243 34.1328 33.6219 34.1328 33.6196C34.1328 33.6172 34.1328 33.6149 34.1328 33.6125C34.1328 33.6102 34.1328 33.6078 34.1328 33.6055H30.1328ZM30.1328 36.877C30.1328 38.1457 30.1011 39.3973 30.0378 40.6319L34.0325 40.8368C34.0994 39.5323 34.1328 38.2124 34.1328 36.877H30.1328ZM30.0379 40.6293C29.9728 41.8672 29.9076 43.1213 29.8425 44.3917L33.8372 44.5966C33.9023 43.3279 33.9673 42.0756 34.0324 40.8395L30.0379 40.6293ZM32.1356 46.4721L37.3602 45.6909L36.7687 41.7349L31.5441 42.5161L32.1356 46.4721ZM39.064 43.7537C39.0966 42.1589 39.1291 40.5804 39.1617 39.0182L35.1625 38.9349C35.13 40.4977 35.0974 42.0768 35.0649 43.6721L39.064 43.7537ZM39.1617 39.0182C39.1936 37.4835 39.2576 35.9487 39.3535 34.4138L35.3613 34.1643C35.2619 35.7544 35.1957 37.3446 35.1625 38.9349L39.1617 39.0182ZM39.3555 34.3759C39.3882 33.6235 39.4209 32.8226 39.4536 31.9734L35.4566 31.8196C35.4241 32.6631 35.3917 33.4572 35.3593 34.2022L39.3555 34.3759ZM39.4536 31.9734C39.4801 31.2844 39.5847 30.6836 39.7516 30.1591L35.9399 28.9463C35.651 29.8542 35.4952 30.8158 35.4566 31.8196L39.4536 31.9734ZM39.7516 30.1591C39.8786 29.7598 40.0629 29.495 40.2858 29.3001L37.6517 26.2898C36.8329 27.0063 36.2685 27.9134 35.9399 28.9463L39.7516 30.1591ZM40.292 29.2946C40.3442 29.2485 40.6053 29.0625 41.4102 29.0625V25.0625C40.0666 25.0625 38.7 25.3648 37.6455 26.2952L40.292 29.2946ZM41.4102 29.0625C41.9199 29.0625 42.126 29.1959 42.2367 29.3001L44.9782 26.3874C43.9821 25.4499 42.7233 25.0625 41.4102 25.0625V29.0625ZM42.2787 29.3386C42.6385 29.6584 42.9259 30.0519 43.1405 30.5455L46.8088 28.9506C46.3723 27.9468 45.7482 27.0708 44.9361 26.3489L42.2787 29.3386ZM43.1703 30.611C43.4412 31.1773 43.6289 31.7859 43.7303 32.4447L47.6838 31.8365C47.5247 30.8027 47.2242 29.8162 46.7789 28.8851L43.1703 30.611ZM43.7303 32.4447C43.8487 33.2144 43.9023 33.8754 43.9023 34.4355H47.9023C47.9023 33.6285 47.8258 32.7596 47.6838 31.8365L43.7303 32.4447ZM43.9023 34.4355V35.0703H47.9023V34.4355H43.9023Z" fill="#DFF6FF"/>
</g>
<g filter="url(#filter1_d_448_7307)">
<path d="M54.3611 63.7538C54.1682 63.5603 53.9966 63.3468 53.8492 63.1168C50.996 58.7854 49.4238 53.7364 49.3136 48.5509C49.2654 43.4162 50.7063 38.3775 53.4619 34.0446C53.8106 33.5098 54.2911 33.0738 54.8571 32.7785C55.423 32.4832 56.0555 32.3385 56.6936 32.3583L61.2022 32.4396C61.4305 32.4457 61.655 32.4999 61.8609 32.5987C62.0669 32.6974 62.2497 32.8385 62.3974 33.0127C62.5471 33.1968 62.6546 33.4115 62.7124 33.6416C62.7702 33.8718 62.7769 34.1118 62.7319 34.3448L61.3669 41.4622C61.3102 41.7346 61.1676 41.9817 60.96 42.167C60.7523 42.3522 60.4907 42.466 60.2136 42.4915L57.0494 42.7763C56.3548 44.6219 56.0215 46.5837 56.0677 48.5551C56.0725 50.555 56.4606 52.5354 57.2112 54.3891L60.4163 54.7532C60.6849 54.7844 60.9377 54.8966 61.141 55.0749C61.3443 55.2532 61.4886 55.4891 61.5546 55.7514L63.0957 62.8887C63.1559 63.1262 63.1616 63.3744 63.1123 63.6145C63.063 63.8546 62.96 64.0804 62.811 64.275C62.6621 64.4696 62.471 64.6281 62.2521 64.7384C62.0332 64.8487 61.7922 64.908 61.5472 64.912L57.0903 64.8938C56.5827 64.8931 56.0803 64.792 55.6119 64.5963C55.1435 64.4007 54.7184 64.1143 54.3611 63.7538ZM61.1695 34.0593L56.6609 33.978C56.303 33.9657 55.9481 34.0468 55.6311 34.2133C55.314 34.3798 55.0458 34.626 54.8527 34.9275C52.2603 38.9868 50.8989 43.7099 50.9332 48.5262C51.0376 53.4054 52.5179 58.156 55.2037 62.2309C55.4063 62.54 55.6825 62.7939 56.0075 62.97C56.3324 63.1461 56.696 63.2387 57.0656 63.2397L61.5224 63.2579L60.0333 56.3675L56.5869 55.9807C56.4553 55.9655 56.3294 55.9184 56.2202 55.8434C56.111 55.7685 56.0218 55.6679 55.9604 55.5506C54.9521 53.372 54.4377 50.9976 54.4539 48.5971C54.3699 46.2152 54.8248 43.845 55.7846 41.6635C55.8539 41.5425 55.9531 41.4414 56.0727 41.3698C56.1923 41.2983 56.3283 41.2587 56.4677 41.2549L59.8731 40.9469L61.1695 34.0593Z" fill="#DFF6FF"/>
</g>
<g clip-path="url(#clip0_448_7307)" filter="url(#filter2_d_448_7307)">
<path d="M59.6666 24.75H60.3333V23.25H59.6666V24.75ZM57.4166 28.6667V27H55.9166V28.6667H57.4166ZM60.3333 29.25H58V30.75H60.3333V29.25ZM55.9166 28.6667C55.9166 29.8173 56.8494 30.75 58 30.75V29.25C57.6778 29.25 57.4166 28.9888 57.4166 28.6667H55.9166ZM62.5833 27C62.5833 28.2426 61.5759 29.25 60.3333 29.25V30.75C62.4044 30.75 64.0833 29.0711 64.0833 27H62.5833ZM60.3333 24.75C61.5759 24.75 62.5833 25.7574 62.5833 27H64.0833C64.0833 24.9289 62.4044 23.25 60.3333 23.25V24.75ZM59.6666 23.25C57.5956 23.25 55.9166 24.9289 55.9166 27H57.4166C57.4166 25.7574 58.424 24.75 59.6666 24.75V23.25Z" fill="#DFF6FF"/>
<circle cx="60" cy="27.0003" r="0.333333" fill="#DFF6FF"/>
<ellipse cx="61.3333" cy="27.0003" rx="0.333333" ry="0.333333" fill="#DFF6FF"/>
<circle cx="58.6667" cy="27.0003" r="0.333333" fill="#DFF6FF"/>
</g>
<defs>
<filter id="filter0_d_448_7307" x="17.5137" y="21.2812" width="33.3887" height="47.9883" filterUnits="userSpaceOnUse" color-interpolation-filters="sRGB">
<feFlood flood-opacity="0" result="BackgroundImageFix"/>
<feColorMatrix in="SourceAlpha" type="matrix" values="0 0 0 0 0 0 0 0 0 0 0 0 0 0 0 0 0 0 127 0" result="hardAlpha"/>
<feOffset/>
<feGaussianBlur stdDeviation="2.5"/>
<feComposite in2="hardAlpha" operator="out"/>
<feColorMatrix type="matrix" values="0 0 0 0 0 0 0 0 0 0 0 0 0 0 0 0 0 0 0.08 0"/>
<feBlend mode="normal" in2="BackgroundImageFix" result="effect1_dropShadow_448_7307"/>
<feBlend mode="normal" in="SourceGraphic" in2="effect1_dropShadow_448_7307" result="shape"/>
</filter>
<filter id="filter1_d_448_7307" x="44.3124" y="27.3564" width="23.8331" height="42.5557" filterUnits="userSpaceOnUse" color-interpolation-filters="sRGB">
<feFlood flood-opacity="0" result="BackgroundImageFix"/>
<feColorMatrix in="SourceAlpha" type="matrix" values="0 0 0 0 0 0 0 0 0 0 0 0 0 0 0 0 0 0 127 0" result="hardAlpha"/>
<feOffset/>
<feGaussianBlur stdDeviation="2.5"/>
<feComposite in2="hardAlpha" operator="out"/>
<feColorMatrix type="matrix" values="0 0 0 0 0 0 0 0 0 0 0 0 0 0 0 0 0 0 0.08 0"/>
<feBlend mode="normal" in2="BackgroundImageFix" result="effect1_dropShadow_448_7307"/>
<feBlend mode="normal" in="SourceGraphic" in2="effect1_dropShadow_448_7307" result="shape"/>
</filter>
<filter id="filter2_d_448_7307" x="51" y="18" width="18" height="18" filterUnits="userSpaceOnUse" color-interpolation-filters="sRGB">
<feFlood flood-opacity="0" result="BackgroundImageFix"/>
<feColorMatrix in="SourceAlpha" type="matrix" values="0 0 0 0 0 0 0 0 0 0 0 0 0 0 0 0 0 0 127 0" result="hardAlpha"/>
<feOffset/>
<feGaussianBlur stdDeviation="2.5"/>
<feComposite in2="hardAlpha" operator="out"/>
<feColorMatrix type="matrix" values="0 0 0 0 0 0 0 0 0 0 0 0 0 0 0 0 0 0 0.08 0"/>
<feBlend mode="normal" in2="BackgroundImageFix" result="effect1_dropShadow_448_7307"/>
<feBlend mode="normal" in="SourceGraphic" in2="effect1_dropShadow_448_7307" result="shape"/>
</filter>
<clipPath id="clip0_448_7307">
<rect width="8" height="8" fill="white" transform="translate(56 23)"/>
</clipPath>
</defs>
</svg>
